HIERARCHY
ROOT SpineBase
{
  OFFSET 0.000000 0.000000 0.000000
  CHANNELS 6 Xposition Yposition Zposition Zrotation Xrotation Yrotation
  JOINT SpineMid
  {
    OFFSET -0.000000 31.504275 0.000000
    CHANNELS 3 Zrotation Xrotation Yrotation
    JOINT SpineShoulder
    {
      OFFSET 0.151736 23.449632 -0.676730
      CHANNELS 3 Zrotation Xrotation Yrotation
      JOINT Neck
      {
        OFFSET 0.099817 7.762345 -0.538160
        CHANNELS 3 Zrotation Xrotation Yrotation
        JOINT Head
        {
          OFFSET 4.693463 12.922361 4.746526
          CHANNELS 3 Zrotation Xrotation Yrotation
          End Site
          {
            OFFSET 0 0 0
          }
        }
      }
      JOINT ShoulderLeft
      {
        OFFSET -11.197313 -2.915058 -12.028659
        CHANNELS 3 Zrotation Xrotation Yrotation
        JOINT ElbowLeft
        {
          OFFSET -6.342686 -24.675829 -6.717784
          CHANNELS 3 Zrotation Xrotation Yrotation
          JOINT WristLeft
          {
            OFFSET 1.640622 -23.017203 -6.691876
            CHANNELS 3 Zrotation Xrotation Yrotation
            JOINT HandLeft
            {
              OFFSET 1.337319 -7.937982 0.051042
              CHANNELS 3 Zrotation Xrotation Yrotation
              JOINT HandTipLeft
              {
                OFFSET 1.292244 -7.572501 -0.682378
                CHANNELS 3 Zrotation Xrotation Yrotation
                End Site
                {
                  OFFSET 0 0 0
                }
              }
              JOINT ThumbLeft
              {
                OFFSET 4.439366 0.241666 5.829927
                CHANNELS 3 Zrotation Xrotation Yrotation
                End Site
                {
                  OFFSET 0 0 0
                }
              }
            }
          }
        }
      }
      JOINT ShoulderRight
      {
        OFFSET 11.858033 -3.747274 11.314102
        CHANNELS 3 Zrotation Xrotation Yrotation
        JOINT ElbowRight
        {
          OFFSET 4.037312 -30.007355 6.317682
          CHANNELS 3 Zrotation Xrotation Yrotation
          JOINT WristRight
          {
            OFFSET 6.348617 -18.108167 -15.002315
            CHANNELS 3 Zrotation Xrotation Yrotation
            JOINT HandRight
            {
              OFFSET 2.753083 -0.300843 -3.131830
              CHANNELS 3 Zrotation Xrotation Yrotation
              JOINT HandTipRight
              {
                OFFSET 2.844593 -0.978135 -3.904652
                CHANNELS 3 Zrotation Xrotation Yrotation
                End Site
                {
                  OFFSET 0 0 0
                }
              }
              JOINT ThumbRight
              {
                OFFSET -0.273930 -0.904140 -1.497336
                CHANNELS 3 Zrotation Xrotation Yrotation
                End Site
                {
                  OFFSET 0 0 0
                }
              }
            }
          }
        }
      }
    }
  }
  JOINT HipLeft
  {
    OFFSET -4.748556 1.366520 -7.935260
    CHANNELS 3 Zrotation Xrotation Yrotation
    JOINT KneeLeft
    {
      OFFSET -8.876168 -35.592279 -3.506605
      CHANNELS 3 Zrotation Xrotation Yrotation
      JOINT AnkleLeft
      {
        OFFSET -7.021598 -38.962843 6.352559
        CHANNELS 3 Zrotation Xrotation Yrotation
        JOINT FootLeft
        {
          OFFSET 2.557014 -7.581020 -3.906923
          CHANNELS 3 Zrotation Xrotation Yrotation
          End Site
          {
            OFFSET 0 0 0
          }
        }
      }
    }
  }
  JOINT HipRight
  {
    OFFSET 5.653136 0.207119 0.880320
    CHANNELS 3 Zrotation Xrotation Yrotation
    JOINT KneeRight
    {
      OFFSET -4.044577 -38.699180 2.860769
      CHANNELS 3 Zrotation Xrotation Yrotation
      JOINT AnkleRight
      {
        OFFSET -8.313691 -37.395646 9.131494
        CHANNELS 3 Zrotation Xrotation Yrotation
        JOINT FootRight
        {
          OFFSET 2.883053 -7.291831 -5.213905
          CHANNELS 3 Zrotation Xrotation Yrotation
          End Site
          {
            OFFSET 0 0 0
          }
        }
      }
    }
  }
}
MOTION
Frames: 12
Frame Time: 0.033333
-42.668641 90.157608 340.965505 0.000000 0.000000 -40.281744 -0.000000 0.000000 40.281744 -0.000000 0.000000 0.000000 -0.000000 0.000000 0.000000 0.000000 0.000000 0.000000 -0.000000 0.000000 0.000000 -0.000000 0.000000 0.000000 -0.000000 0.000000 0.000000 -0.000000 0.000000 0.000000 0.000000 0.000000 0.000000 0.000000 0.000000 0.000000 -0.000000 0.000000 0.000000 -0.000000 0.000000 0.000000 -0.000000 0.000000 0.000000 -0.000000 0.000000 0.000000 0.000000 0.000000 0.000000 0.000000 0.000000 0.000000 -0.000000 0.000000 40.281744 -0.000000 0.000000 0.000000 -0.000000 0.000000 0.000000 0.000000 0.000000 0.000000 -0.000000 0.000000 40.281744 -0.000000 0.000000 0.000000 -0.000000 0.000000 0.000000 0.000000 0.000000 0.000000
-42.304722 90.149069 340.850079 0.173486 0.026482 -40.188189 -0.115442 -0.132181 40.188016 -0.000000 0.000000 0.000000 -0.000000 0.000000 0.000000 0.000000 0.000000 0.000000 -0.000000 0.000000 0.000000 1.317302 -0.122132 -0.390102 -1.002304 -0.936250 0.219994 -0.113358 -1.099399 -0.206837 0.000000 0.000000 0.000000 0.000000 0.000000 0.000000 -0.222494 1.515900 0.160556 1.005889 -2.526972 -1.139613 2.562006 4.791147 -0.048886 -3.032481 -3.571410 0.077661 0.000000 0.000000 0.000000 0.000000 0.000000 0.000000 -0.115442 -0.132181 40.188016 -0.000000 0.000000 0.000000 -0.654168 1.487314 0.843278 0.000000 0.000000 0.000000 -0.115442 -0.132181 40.188016 -0.000000 0.000000 0.000000 -0.000000 0.000000 0.000000 0.000000 0.000000 0.000000
-41.984329 90.139352 340.739313 0.321635 0.054039 -40.089797 -0.211264 -0.248470 40.089187 -0.000000 0.000000 0.000000 -0.000000 0.000000 0.000000 0.000000 0.000000 0.000000 0.238243 0.906654 -0.299311 2.131336 -1.193773 -0.368907 -1.914209 -2.096433 0.324060 -0.395908 -1.334797 -0.230330 0.000000 0.000000 0.000000 0.000000 0.000000 0.000000 -0.405955 2.684190 0.286800 1.788310 -4.467076 -1.978520 4.451328 8.465727 -0.180080 -5.173122 -6.231353 -0.402431 0.000000 0.000000 0.000000 0.000000 0.000000 0.000000 -0.586326 -1.093387 40.267383 0.832313 0.402246 -0.185510 -1.168929 2.550293 1.476847 0.000000 0.000000 0.000000 -0.794389 -0.879515 40.031688 0.852371 0.108077 0.050955 0.452900 -0.811866 -0.643883 0.000000 0.000000 0.000000
-41.707462 90.128456 340.633209 0.444425 0.082668 -39.986489 -0.287398 -0.348927 39.985293 -0.000000 0.000000 0.000000 -0.000000 0.000000 0.000000 0.000000 0.000000 0.000000 0.352586 1.212285 -0.410478 2.798872 -1.716619 -0.465898 -2.732490 -3.482678 0.308126 -0.820299 -0.808080 -0.082269 0.000000 0.000000 0.000000 0.000000 0.000000 0.000000 -0.550161 3.519680 0.377458 2.362251 -5.824268 -2.548127 5.737878 11.046552 -0.236121 -6.509525 -8.017083 -1.275450 0.000000 0.000000 0.000000 0.000000 0.000000 0.000000 -0.810227 -1.526356 40.231459 1.159650 0.561123 -0.260401 -1.539402 3.213172 1.901580 0.000000 0.000000 0.000000 -1.080123 -1.234817 39.905157 1.176379 0.170933 0.067425 0.589567 -1.068039 -0.842249 0.000000 0.000000 0.000000
-41.474120 90.116381 340.531766 0.541837 0.112365 -39.878114 -0.343777 -0.433628 39.876282 -0.000000 0.000000 0.000000 -0.000000 0.000000 0.000000 0.000000 0.000000 0.000000 0.461341 1.412621 -0.493255 3.203782 -2.182680 -0.519777 -3.461142 -5.099888 0.165120 -1.382868 0.416915 0.248477 0.000000 0.000000 0.000000 0.000000 0.000000 0.000000 -0.655062 4.033343 0.431565 2.736973 -6.603363 -2.870651 6.474511 12.578498 -0.119351 -7.149873 -9.009714 -2.362469 0.000000 0.000000 0.000000 0.000000 0.000000 0.000000 -0.987920 -1.883729 40.177364 1.427750 0.692207 -0.322734 -1.763426 3.492951 2.118607 0.000000 0.000000 0.000000 -1.291884 -1.535013 39.778968 1.433265 0.239642 0.078028 0.667568 -1.222791 -0.958787 0.000000 0.000000 0.000000
-41.284304 90.103127 340.434985 0.613864 0.143127 -39.764445 -0.380330 -0.502659 39.762009 -0.000000 0.000000 0.000000 -0.000000 0.000000 0.000000 0.000000 0.000000 0.000000 0.562979 1.505113 -0.546292 3.347853 -2.589665 -0.538494 -4.110560 -6.954313 -0.115524 -2.101146 2.303670 0.793933 0.000000 0.000000 0.000000 0.000000 0.000000 0.000000 -0.720724 4.231801 0.448374 2.917315 -6.808070 -2.959856 6.696772 13.097110 0.223234 -7.208334 -9.294472 -3.478949 0.000000 0.000000 0.000000 0.000000 0.000000 0.000000 -1.119276 -2.165732 40.105570 1.636614 0.795729 -0.372134 -1.840830 3.398603 2.128778 0.000000 0.000000 0.000000 -1.429712 -1.780910 39.653773 1.623553 0.314238 0.082871 0.687548 -1.275769 -0.993937 0.000000 0.000000 0.000000
-41.137224 90.088531 340.323420 0.672709 0.196168 -39.623235 -0.393074 -0.580099 39.620093 -0.000000 0.000000 0.000000 0.762117 -0.583773 -0.064300 0.000000 0.000000 0.000000 0.726130 1.397913 -0.564921 3.110356 -2.793272 -0.522736 -4.060488 -11.397395 -0.922289 -4.480107 7.410408 2.483745 0.000000 0.000000 0.000000 0.000000 0.000000 0.000000 -0.859957 4.219685 0.422315 3.335191 -6.205338 -2.914141 3.324051 9.515496 3.553679 -1.296517 -3.838290 -9.053452 0.000000 0.000000 0.000000 0.000000 0.000000 0.000000 -1.179933 -2.408964 39.999255 1.778436 0.894898 -0.413578 -4.568290 -1.224140 1.930222 0.000000 0.000000 0.000000 -1.485012 -2.003629 39.508246 1.747996 0.403308 0.081074 0.663482 -1.219951 -0.954778 0.000000 0.000000 0.000000
-41.030549 90.075824 340.227426 0.701578 0.240821 -39.500638 -0.388192 -0.632073 39.497022 -0.000000 0.000000 0.000000 0.755339 -0.710257 -0.014864 0.000000 0.000000 0.000000 0.895948 1.266491 -0.578791 2.643563 -3.120105 -0.462003 -5.177981 -13.924173 -1.640893 -5.522692 10.677198 3.870074 0.000000 0.000000 0.000000 0.000000 0.000000 0.000000 -0.729027 2.809822 0.243979 2.725335 -3.710240 -2.070091 3.424065 7.864858 3.431757 -3.742142 -5.843120 -7.362312 0.000000 0.000000 0.000000 0.000000 0.000000 0.000000 -1.210377 -2.562854 39.897509 1.869336 0.953530 -0.438968 -3.773754 -1.326879 1.479437 0.000000 0.000000 0.000000 -1.465004 -2.151496 39.389195 1.094896 -0.020244 0.018922 1.119369 -0.448384 -0.625922 0.000000 0.000000 0.000000
-40.967805 90.063526 340.145539 0.716970 0.274890 -39.385554 -0.379743 -0.667389 39.381623 -0.000000 0.000000 0.000000 0.683438 -0.829142 0.055328 0.000000 0.000000 0.000000 0.936374 1.065858 -0.537376 2.080499 -3.442136 -0.403744 -6.549899 -14.930874 -2.246801 -4.883074 13.026133 4.620469 0.000000 0.000000 0.000000 0.000000 0.000000 0.000000 -0.579648 2.020682 0.160789 1.995122 -2.423981 -1.400151 7.070624 10.852053 2.260433 -8.594140 -10.195668 -4.733962 0.000000 0.000000 0.000000 0.000000 0.000000 0.000000 -1.215432 -2.638203 39.790736 1.903559 0.979107 -0.449487 0.082459 2.535561 0.801691 0.000000 0.000000 0.000000 -1.383146 -2.250585 39.286059 1.061907 0.008701 0.018445 0.717317 0.580769 0.042521 0.000000 0.000000 0.000000
-40.963765 90.040545 340.105195 0.669612 0.279714 -39.294772 -0.341090 -0.640530 39.291231 -0.000000 0.000000 0.000000 0.405758 -0.929199 0.192568 0.000000 0.000000 0.000000 0.810783 0.771652 -0.424533 1.295340 -3.730083 -0.324172 -8.099826 -14.572142 -2.765656 -2.987143 13.578883 4.577342 0.000000 0.000000 0.000000 0.000000 0.000000 0.000000 -0.547474 1.558795 0.102281 1.495608 -1.575748 -0.851765 7.316011 9.840106 1.132581 -8.605816 -10.373547 -4.183167 0.000000 0.000000 0.000000 0.000000 0.000000 0.000000 -1.190588 -2.561491 39.687486 1.880561 0.935367 -0.435345 8.390065 12.489233 -0.945329 0.000000 0.000000 0.000000 -1.234877 -2.234879 39.213019 1.017134 0.026658 0.025959 0.683610 0.642984 0.020201 0.000000 0.000000 0.000000
-40.982660 90.014444 340.072794 0.588221 0.274613 -39.191211 -0.282383 -0.584531 39.188361 -0.000000 0.000000 0.000000 0.112819 -1.071164 0.350004 0.000000 0.000000 0.000000 0.719878 0.536765 -0.337440 0.241059 -4.228874 -0.169357 -9.351262 -12.292968 -2.854817 -0.600050 11.836431 3.801404 0.000000 0.000000 0.000000 0.000000 0.000000 0.000000 -0.620863 1.378946 0.062497 1.314004 -1.214301 -0.547150 10.115197 12.090505 -0.627814 -12.335882 -15.040967 -5.227575 0.000000 0.000000 0.000000 0.000000 0.000000 0.000000 -1.143718 -2.438775 39.568346 1.845219 0.880325 -0.416887 14.378776 18.728628 -3.067182 0.000000 0.000000 0.000000 -1.079774 -2.191608 39.125956 0.988450 0.041783 0.035351 -0.037848 0.402018 0.375548 0.000000 0.000000 0.000000
-41.031910 89.972375 340.060403 0.454222 0.244702 -39.053341 -0.198567 -0.476202 39.051546 -0.000000 0.000000 0.000000 -0.091979 -1.236777 0.483787 0.000000 0.000000 0.000000 -0.000000 0.000000 0.000000 -0.378665 -4.377224 -0.219017 -10.177296 -8.871483 -2.572158 2.535632 8.320661 2.425755 0.000000 0.000000 0.000000 0.000000 0.000000 0.000000 -0.799928 1.386432 0.027904 1.436020 -1.083000 -0.413851 14.503724 16.412539 -1.976695 -17.519552 -19.856668 -4.322184 0.000000 0.000000 0.000000 0.000000 0.000000 0.000000 -1.068151 -2.223365 39.406698 1.781104 0.797590 -0.388036 17.839457 22.028351 -4.546813 0.000000 0.000000 0.000000 -0.879501 -2.080494 39.008018 0.915744 0.095075 0.030671 -0.275903 0.359313 0.498438 0.000000 0.000000 0.000000
